<?xml version="1.0" encoding="UTF-8" standalone="no"?>
<!-- Created with Inkscape (http://www.inkscape.org/) -->

<svg
   width="1920"
   height="1080"
   viewBox="0 0 508 285.75"
   version="1.1"
   id="svg14076"
   inkscape:version="1.1.2 (b8e25be833, 2022-02-05)"
   sodipodi:docname="Plank_SVG.svg"
   xmlns:inkscape="http://www.inkscape.org/namespaces/inkscape"
   xmlns:sodipodi="http://sodipodi.sourceforge.net/DTD/sodipodi-0.dtd"
   xmlns="http://www.w3.org/2000/svg"
   xmlns:svg="http://www.w3.org/2000/svg">
  <sodipodi:namedview
     id="namedview14078"
     pagecolor="#ffffff"
     bordercolor="#666666"
     borderopacity="1.0"
     inkscape:pageshadow="2"
     inkscape:pageopacity="0.0"
     inkscape:pagecheckerboard="0"
     inkscape:document-units="mm"
     showgrid="false"
     units="px"
     inkscape:zoom="0.35355339"
     inkscape:rotation="1"
     inkscape:cx="785.00063"
     inkscape:cy="770.56733"
     inkscape:window-width="1920"
     inkscape:window-height="1017"
     inkscape:window-x="-8"
     inkscape:window-y="-8"
     inkscape:window-maximized="1"
     inkscape:current-layer="layer5" />
  <defs
     id="defs14073">
    <rect
       x="592.8991"
       y="383.09991"
       width="638.61497"
       height="205.49935"
       id="rect157475" />
    <rect
       x="656.53259"
       y="269.92025"
       width="591.60755"
       height="170.51836"
       id="rect151317" />
  </defs>
  <g
     inkscape:groupmode="layer"
     id="layer4"
     inkscape:label="Warstwa 2">
    <path
       style="fill:#673914;fill-opacity:1;stroke:none;stroke-width:0.385922px;stroke-linecap:butt;stroke-linejoin:miter;stroke-opacity:1"
       d="m 222.50553,244.5915 271.11969,24.81314 -12.19785,13.16311 -201.20259,-18.04966 -227.24405,0.18803 -29.606092,-10.71699 -0.792137,-10.15293 6.40887,-5.2664 44.80101,10.27604"
       id="path32979"
       sodipodi:nodetypes="ccccccccc" />
    <path
       style="fill:#94521d;fill-opacity:1;stroke:none;stroke-width:0.385922px;stroke-linecap:butt;stroke-linejoin:miter;stroke-opacity:1"
       d="m 45.626218,240.82601 -7.89922,5.82537 -18.204055,-18.08097 0.560128,-33.23707 5.739744,-6.40009 22.179809,-15.04139 z"
       id="path34469"
       sodipodi:nodetypes="ccccccc" />
    <path
       style="fill:#e3a26e;fill-opacity:1;stroke:none;stroke-width:0.385922px;stroke-linecap:butt;stroke-linejoin:miter;stroke-opacity:1"
       d="m 48.002624,173.89186 -8.59525,10.00793 -21.004677,0.2659 -1.120251,-39.88448 6.956097,-4.23245 z"
       id="path34740" />
    <path
       style="fill:#e3a26e;fill-opacity:1;stroke:none;stroke-width:0.385922px;stroke-linecap:butt;stroke-linejoin:miter;stroke-opacity:1"
       d="m 50.379031,131.02393 -9.011225,11.396 -37.2482939,-5.31794 0.5601276,-16.21968 9.2611323,-7.15596 z"
       id="path34808" />
    <path
       style="fill:#e3a26e;fill-opacity:1;stroke:none;stroke-width:0.385922px;stroke-linecap:butt;stroke-linejoin:miter;stroke-opacity:1"
       d="M 44.041951,109.21393 29.90975,122.37706 6.9377974,107.33566 3.7692525,16.71134 18.693589,8.4366827 Z"
       id="path34876" />
    <path
       style="fill:#673914;fill-opacity:1;stroke:none;stroke-width:0.385922px;stroke-linecap:butt;stroke-linejoin:miter;stroke-opacity:1"
       d="M 19.485726,92.668424 6.9377974,107.33566 29.90975,122.37706 44.041951,109.21393 Z"
       id="path38909" />
    <path
       style="fill:#673914;fill-opacity:1;stroke:none;stroke-width:0.385922px;stroke-linecap:butt;stroke-linejoin:miter;stroke-opacity:1"
       d="m 13.148635,127.26359 -9.0291229,9.8384 37.2482939,5.31794 9.011225,-11.396 z"
       id="path40165" />
    <path
       style="fill:#673914;fill-opacity:1;stroke:none;stroke-width:0.385922px;stroke-linecap:butt;stroke-linejoin:miter;stroke-opacity:1"
       d="m 24.238543,175.39601 -5.835846,8.76968 21.004677,-0.2659 8.59525,-10.00793 z"
       id="path40299" />
    <path
       style="fill:#673914;fill-opacity:1;stroke:none;stroke-width:0.385922px;stroke-linecap:butt;stroke-linejoin:miter;stroke-opacity:1"
       d="m 19.522941,228.57041 7.884151,-5.04198 18.219126,17.29758 -7.89922,5.82537 z"
       id="path40367" />
    <path
       style="fill:#94521d;fill-opacity:1;stroke:none;stroke-width:0.385922px;stroke-linecap:butt;stroke-linejoin:miter;stroke-opacity:1"
       d="m 28.991371,238.5698 -6.408872,5.2664 0.792136,10.15293 6.408864,-5.64242 z"
       id="path55587" />
    <path
       style="fill:#673914;fill-opacity:1;stroke:none;stroke-width:0.385922px;stroke-linecap:butt;stroke-linejoin:miter;stroke-opacity:1"
       d="m 495.09172,222.77826 -12.87222,16.73353 -33.46775,-6.5806 41.78518,-14.10129 z"
       id="path62722" />
    <path
       style="fill:#673914;fill-opacity:1;stroke:none;stroke-width:0.385922px;stroke-linecap:butt;stroke-linejoin:miter;stroke-opacity:1"
       d="m 498.7281,140.80083 -19.62271,19.43417 5.04115,-29.24862 z"
       id="path69287" />
    <path
       style="fill:#673914;fill-opacity:1;stroke:none;stroke-width:0.385922px;stroke-linecap:butt;stroke-linejoin:miter;stroke-opacity:1"
       d="M 505.0652,76.122897 493.94871,95.888028 487.22719,72.223236 Z"
       id="path69355" />
    <path
       style="fill:#673914;fill-opacity:1;stroke:none;stroke-width:0.385922px;stroke-linecap:butt;stroke-linejoin:miter;stroke-opacity:1"
       d="M 501.1045,20.469787 489.46771,34.731817 474.90444,18.51213 Z"
       id="path69423" />
    <path
       style="fill:#94521d;fill-opacity:1;stroke:none;stroke-width:0.385922px;stroke-linecap:butt;stroke-linejoin:miter;stroke-opacity:1"
       d="m 24.201281,160.46844 -6.434601,5.6499 0.636017,18.04735 5.835846,-8.76968 z"
       id="path76902" />
  </g>
  <g
     inkscape:label="Warstwa 1"
     inkscape:groupmode="layer"
     id="layer1"
     style="display:inline">
    <path
       style="fill:#000000;stroke-width:0.298489;stroke-linejoin:round"
       d=""
       id="path14742"
       transform="scale(0.26458333)" />
    <path
       style="fill:#000000;stroke-width:0.298489;stroke-linejoin:round"
       d=""
       id="path14781"
       transform="scale(0.26458333)" />
    <path
       style="fill:#000000;stroke-width:0.298489;stroke-linejoin:round"
       d=""
       id="path14820"
       transform="scale(0.26458333)" />
    <path
       style="fill:none;stroke:none;stroke-width:0.385922px;stroke-linecap:butt;stroke-linejoin:miter;stroke-opacity:1"
       d="m 29.783487,248.34671 -1.088494,-9.14044 -6.112494,4.62993 6.408872,-5.2664 16.634847,2.25621 -16.091037,-1.58649 z"
       id="path71012" />
    <path
       style="fill:#f4dbc6;fill-opacity:1;stroke:none;stroke-width:0.385922px;stroke-linecap:butt;stroke-linejoin:miter;stroke-opacity:1"
       d="m 29.783499,248.34671 -1.878849,-7.91833 -5.322151,3.40782 6.408861,-5.2664 16.634858,2.25621 -15.122363,-0.67965 z"
       id="path71971" />
    <path
       style="fill:none;stroke:none;stroke-width:0.385922px;stroke-linecap:butt;stroke-linejoin:miter;stroke-opacity:1"
       d="m 27.407092,223.52843 -2.844264,-31.30297 -4.47976,3.10788 5.739747,-6.40009 22.179809,-15.04139 -19.974205,16.54744 z"
       id="path72105" />
    <path
       style="fill:#c37430;fill-opacity:1;stroke:none;stroke-width:0.385922px;stroke-linecap:butt;stroke-linejoin:miter;stroke-opacity:1"
       d="m 46.418357,3.1722001 -27.724768,5.2644826 0.792137,84.2317413 24.556225,16.545506 -30.101178,4.51242 -0.792136,13.53724 37.230394,3.76034 -26.140488,9.02483 v 35.34725 l 23.764081,-1.50415 -22.179809,15.04139 1.584277,34.59518 18.219126,17.29758 -16.634858,-2.25621 0.792139,9.77691 22.179811,8.27275 c 0,0 216.94644,-5.04028 230.16154,-0.75206 6.70431,2.17551 211.50037,13.53724 211.50037,13.53724 l 10.64785,-36.85138 -36.43827,-2.25621 c 0,0 19.80341,-6.76862 26.93263,-7.5207 7.12924,-0.75205 0,-63.92586 0,-63.92586 l -7.12922,-18.04966 h 11.0899 l 1.58426,-55.653102 -7.92134,-6.768622 12.67417,-2.256207 -5.54494,-47.380352 -17.42701,-6.016551 19.01128,-2.256208 -2.37642,-11.2810359 c 0,0 -131.49461,-3.0082767 -193.28123,5.2644839 C 243.66025,22.725996 46.418357,3.1722001 46.418357,3.1722001 Z"
       id="path70382" />
    <path
       style="fill:#f4dbc6;fill-opacity:1;stroke:none;stroke-width:0.385922px;stroke-linecap:butt;stroke-linejoin:miter;stroke-opacity:1"
       d="m 24.201281,160.46844 -1.292442,-17.68002 -5.626396,1.49279 6.9561,-4.23245 6.975301,-2.4091 -5.400662,4.42939 z"
       id="path72645" />
    <path
       style="fill:#f4dbc6;fill-opacity:1;stroke:none;stroke-width:0.385922px;stroke-linecap:butt;stroke-linejoin:miter;stroke-opacity:1"
       d="m 13.535238,120.47044 -0.949339,-4.76939 -7.9062593,5.18126 9.2611323,-7.15596 8.342925,-1.261 -7.347514,2.47978 z"
       id="path72713" />
    <path
       style="fill:#f4dbc6;fill-opacity:1;stroke:none;stroke-width:0.385922px;stroke-linecap:butt;stroke-linejoin:miter;stroke-opacity:1"
       d="M 19.15245,40.75661 16.858511,11.378758 3.7692525,16.71134 18.693589,8.4366827 31.971942,5.9030891 21.478324,10.706438 Z"
       id="path72781" />
    <path
       style="fill:#c5b1a0;fill-opacity:1;stroke:none;stroke-width:0.385922px;stroke-linecap:butt;stroke-linejoin:miter;stroke-opacity:1"
       d="m 13.535238,120.47044 v -5.56546 l 8.748459,-2.43963 -7.347514,2.47978 z"
       id="path125132" />
    <path
       id="path125418"
       style="fill:#391e0a;fill-opacity:0.424682;stroke:none;stroke-width:4.73183;stroke-linejoin:round;stroke-opacity:1"
       d="m 339.64351,11.322736 c -4.08473,0.260697 -8.14431,0.526351 -11.99963,0.837264 15.4769,5.344157 30.83422,10.992666 46.09551,16.87602 15.69507,6.086351 31.40697,12.147339 46.88147,18.731952 2.55947,1.160627 5.14223,2.275923 7.67845,3.481995 12.00241,5.707571 23.42969,12.43446 34.2421,19.998865 12.99449,9.380555 25.52833,19.353147 37.3101,30.100398 l 0.21503,-7.551537 c -10.28902,-9.082461 -21.07011,-17.650186 -32.23469,-25.735607 -10.82786,-7.60435 -22.293,-14.349018 -34.3349,-20.060558 -2.54854,-1.208767 -5.14536,-2.323412 -7.71794,-3.48493 C 410.29968,37.921324 394.59237,31.830088 378.88364,25.753061 365.87962,20.753525 352.80089,15.93805 339.64351,11.322736 Z M 71.814054,26.366322 c -10.115925,0.03345 -20.227252,0.392677 -30.303851,1.287477 -10.291052,0.913848 -13.467434,1.588355 -22.606044,3.148555 l 0.0232,2.497838 c 5.691233,-1.019882 9.916269,-1.737186 18.139456,-2.522076 20.247866,-1.932626 40.651107,-1.688071 60.954268,-0.918051 34.512617,1.768987 69.018737,3.895507 103.400847,7.312109 14.61677,1.652149 18.65698,2.016721 33.17766,4.021071 21.04277,2.904619 41.96974,6.518282 62.82631,10.44671 28.09101,5.425848 56.15707,11.079121 83.80551,18.325073 9.90313,2.676328 14.0963,3.697021 23.78112,6.748057 13.47843,4.246155 26.63395,9.371122 39.31364,15.463691 15.37183,7.525172 30.68098,15.367124 43.97746,26.023494 3.80455,3.22723 7.66364,6.48229 10.7774,10.2117 l 0.24521,-8.62971 c -1.82115,-1.63386 -3.72248,-3.2113 -5.61224,-4.78783 C 480.27133,104.37304 464.85465,96.535612 449.37758,89.014263 436.6249,82.913038 423.3792,77.824153 409.81719,73.612269 400.05099,70.57922 395.87179,69.578731 385.8883,66.920765 358.12769,59.769469 329.9806,54.121077 301.7958,48.737438 275.4596,43.778329 248.9884,39.439136 222.35165,36.227679 216.77418,35.555233 211.18486,34.974341 205.60153,34.347508 171.20042,30.947182 136.67467,28.846558 102.14731,27.033929 92.050903,26.62525 81.92999,26.332884 71.814054,26.366322 Z M 192.71461,57.987005 c -22.5622,-0.136807 -45.115,0.904005 -67.55977,3.088334 -4.15231,0.404101 -8.29415,0.89892 -12.44134,1.348432 -18.705688,2.396645 -37.403801,5.764508 -55.249941,11.756958 -3.338213,1.12092 -6.604299,2.429168 -9.906354,3.643567 -8.124417,3.615406 -10.19876,4.28188 -17.782831,8.638512 -4.125599,2.369949 -7.310398,4.151863 -10.290039,6.062085 l 0.0015,0.143218 1.30424,0.879132 c 0.710428,-0.545868 1.120088,-0.856578 1.995039,-1.551148 0.782796,-0.621406 1.437311,-1.402018 2.299053,-1.91983 6.649775,-3.995725 10.675909,-5.550625 17.818426,-8.769249 3.299218,-1.226268 6.562054,-2.545981 9.897831,-3.678814 17.873552,-6.069855 36.614549,-9.506285 55.362886,-11.975087 4.15898,-0.462936 8.31258,-0.971843 12.47691,-1.388832 22.46693,-2.249677 45.05002,-3.325257 67.64102,-3.213917 11.19008,0.137164 16.96902,0.115564 28.1479,0.622074 18.37317,0.832473 36.70503,2.580845 54.89875,5.149176 4.39965,0.693175 8.81228,1.313609 13.19866,2.079204 19.56822,3.415435 38.8553,8.270233 57.76482,14.138026 3.14553,1.052849 6.31202,2.051179 9.4368,3.158832 13.30709,4.716944 26.29444,10.396545 38.37452,17.531872 9.95109,6.35345 19.94667,13.04089 27.34728,22.1618 0.86342,1.22756 1.82183,2.39902 2.59068,3.6825 2.66312,4.44588 4.0395,9.61982 3.21417,14.72924 -0.20802,1.28787 -0.65014,2.53151 -0.97548,3.79707 -1.43642,3.40487 -1.63077,4.33376 -3.75258,7.44944 -3.84967,5.65281 -9.27195,10.08549 -14.92682,14.02638 0.11111,0.73699 0.15328,1.08251 0.0402,1.29409 1.95043,-1.15534 3.87231,-2.30088 5.96264,-3.52753 5.71427,-4.0265 11.19534,-8.5454 15.0452,-14.31647 2.13089,-3.19439 2.30908,-4.13301 3.72703,-7.61764 1.65015,-5.09456 1.49374,-10.26234 -0.58015,-15.2272 -1.49504,-3.57923 -2.28769,-4.29023 -4.59269,-7.50968 -7.55385,-9.14055 -17.64202,-15.85465 -27.71162,-22.23229 -12.2147,-7.105132 -25.32835,-12.74636 -38.7435,-17.453299 -3.14395,-1.103132 -6.32833,-2.09909 -9.49248,-3.148556 -19.03923,-5.83257 -38.46657,-10.573727 -58.14699,-13.980848 -4.39644,-0.761119 -8.81712,-1.388482 -13.22573,-2.082877 -18.22613,-2.55993 -36.58848,-4.314282 -54.99234,-5.152117 -11.15428,-0.507797 -17.011,-0.491549 -28.175,-0.634558 z M 403.64024,170.87007 c -0.17618,0.10431 -0.36265,0.21498 -0.53842,0.31875 0.29902,-0.08 0.459,-0.17017 0.53842,-0.31875 z m -0.53842,0.31875 c -0.76857,0.2057 -2.39665,0.4453 -5.67725,2.05204 -9.48214,4.64409 -19.57958,8.05688 -29.78787,10.91602 -7.40934,1.96587 -10.10913,2.77212 -17.6869,4.41251 -10.22379,2.21323 -20.56603,3.86395 -30.92893,5.36438 0.92768,-0.16839 1.85765,-0.3246 2.78643,-0.48693 12.16333,-2.55429 24.13361,-6.19766 35.4218,-11.25313 1.92912,-0.86394 3.79599,-1.84851 5.69423,-2.77252 6.59568,-3.4289 12.99816,-6.98772 18.17584,-12.21526 3.3421,-3.37427 5.36359,-6.55331 7.74111,-10.54217 3.07792,-5.77187 4.63364,-12.01807 4.36911,-18.50795 -0.19217,-4.71503 -0.80862,-6.28692 -1.91072,-10.88739 -2.48211,-7.88841 -6.84663,-14.90535 -12.90703,-20.77443 -4.59589,-4.4508 -6.23661,-5.27277 -11.57568,-9.002059 -14.19781,-8.678715 -30.46211,-13.373233 -46.84048,-16.676988 -4.02682,-0.812248 -8.0885,-1.45901 -12.13267,-2.188637 -16.90823,-2.705368 -34.01812,-4.190405 -51.15545,-4.592467 -10.58009,-0.248225 -15.44507,-0.02859 -26.02447,0.193157 -24.69704,0.920442 -49.27989,3.548085 -73.80171,6.386715 -16.05602,2.107574 -32.36143,3.633254 -47.99541,7.929044 -2.53962,0.697839 -5.01844,1.583608 -7.52762,2.375178 -10.287918,4.245806 -20.90497,9.336677 -27.836935,18.054807 -3.668349,4.6136 -3.776716,5.97439 -5.990525,11.3442 -2.542137,9.18757 -2.637277,18.73841 -0.543822,28.02192 1.465097,6.49697 2.446914,8.14413 4.987207,14.31721 4.436211,9.03775 10.719923,17.10442 18.617524,23.66667 4.615711,3.83525 6.480754,4.72716 11.564111,7.82696 5.72309,3.043 11.79381,5.44031 18.08839,7.17402 6.26134,1.72457 12.68642,2.70951 19.1041,3.71334 14.26178,2.20507 28.66929,3.19229 43.08169,3.93002 19.22045,0.98268 38.44005,-0.26167 57.57453,-1.92204 21.79441,-2.36344 43.49061,-5.48411 65.20347,-8.43875 13.37331,-1.85017 26.75927,-3.75965 39.95724,-6.56372 7.58483,-1.61149 10.21171,-2.38613 17.62737,-4.32145 10.18295,-2.79634 20.2453,-6.16734 29.71826,-10.73534 3.77144,-1.81866 7.18333,-3.77313 10.61106,-5.79696 z M 245.11241,77.065617 c 2.10914,0.0084 4.39098,0.03885 7.01784,0.09768 17.09958,0.382945 34.1705,1.860053 51.03864,4.574834 4.02156,0.734579 8.0616,1.382463 12.06459,2.204063 16.20513,3.326153 32.25151,8.12057 46.26724,16.762916 5.30593,3.73521 6.84826,4.49453 11.40399,8.94771 5.95334,5.81934 10.2575,12.75493 12.64789,20.56219 1.04347,4.50343 1.66581,6.15158 1.79544,10.76326 0.18094,6.43574 -1.52762,12.60289 -4.63137,18.28614 -2.37349,3.88251 -4.46812,7.08636 -7.77359,10.35564 -4.90004,4.84647 -2.03476,1.55085 -7.63747,6.08486 -0.16887,0.13658 0.43327,-0.0878 0.64979,-0.13147 -1.91035,0.95002 -3.78764,1.96404 -5.73138,2.85037 -11.26247,5.13577 -23.24397,8.79569 -35.40167,11.41324 -2.53471,0.45295 -5.06012,0.95662 -7.60419,1.35872 -13.11504,2.07276 -26.42456,2.89214 -39.70582,3.02958 -16.02531,-0.16207 -32.03867,-0.92532 -48.03023,-1.91102 -16.3345,-1.14564 -32.64078,-2.62908 -48.98558,-3.64798 -14.07538,-1.02388 -28.41959,-1.80822 -41.86409,-6.24496 -3.9857,-1.70603 -5.74966,-2.16051 -9.14129,-4.72026 -4.73838,-3.57616 -7.55783,-8.65774 -8.86202,-14.20192 -0.3989,-3.86089 -0.68279,-4.51702 -0.18797,-8.45489 0.86151,-6.85647 3.99983,-13.10063 7.91516,-18.82745 3.21931,-4.11362 4.17144,-5.6714 8.10084,-9.28115 1.58507,-1.4561 3.42842,-2.64125 5.01196,-4.09891 0.16796,-0.15482 -0.0469,-0.53326 0.15007,-0.65292 4.33399,-2.63523 8.74812,-4.32411 13.42068,-6.32943 2.59342,-0.92223 5.15819,-1.92283 7.78057,-2.76739 15.28169,-4.92154 31.27382,-7.48823 47.25742,-9.22532 3.38206,-0.29526 6.75996,-0.63704 10.14615,-0.88574 15.86831,-1.16544 31.8297,-1.31461 47.70919,-0.26367 14.19551,1.01142 28.58664,2.10415 42.0242,6.94196 1.70163,0.71675 3.44464,1.34943 5.1048,2.14971 7.47887,3.60516 13.8035,8.9567 18.61445,15.47617 0.87017,1.31821 1.82493,2.58947 2.6108,3.95497 3.62957,6.30663 5.05954,13.32353 3.90496,20.44395 -0.33485,1.27452 -0.56373,2.57876 -1.00487,3.82351 -0.84699,2.38984 -2.2751,5.00582 -3.84927,7.03081 -8.70838,11.2021 3.37831,-5.21388 -6.43999,6.05916 -0.29756,0.34168 0.89488,-0.24785 1.34216,-0.37164 -1.63121,0.86716 -3.2287,1.79456 -4.89362,2.6014 -10.12089,4.90466 -21.15613,8.01413 -32.23004,10.21096 -7.35653,1.02615 -8.65978,1.36833 -16.1568,1.75972 -10.74441,0.56089 -21.49565,-0.19601 -32.23467,-0.46784 -15.2732,-0.59895 -30.54536,-1.33901 -45.76134,-2.77767 -10.33067,-1.16799 -21.75061,-2.20139 -31.18262,-6.72161 -1.38901,-0.66569 -2.6657,-1.52558 -3.99859,-2.28852 -2.26777,-1.9376 -3.58328,-2.64932 -4.923,-5.2542 -2.09427,-4.07203 -0.55019,-8.17258 1.83181,-11.73567 2.1137,-2.63771 2.6063,-3.46074 5.19221,-5.80281 6.26881,-5.67784 0.44307,0.0709 7.28936,-5.45179 0.34036,-0.27454 -1.60922,0.72918 -1.22071,0.52073 1.62562,-0.87229 3.29017,-1.67582 4.93539,-2.514 4.81558,-2.06542 6.29853,-2.79628 11.31966,-4.55648 8.53237,-2.99115 17.37215,-5.17748 26.34859,-6.54094 5.63518,-0.66236 7.81285,-1.03222 13.47172,-1.24854 8.78034,-0.33569 17.57299,0.33349 26.21012,1.85371 10.06453,2.0098 20.02567,4.32516 28.60276,10.00018 3.24349,2.6877 6.77079,5.48467 5.05376,10.06039 -0.25451,0.67827 -0.68802,1.28287 -1.03196,1.92424 -0.50926,0.60676 -0.96819,1.25498 -1.52779,1.81994 -0.63078,0.63682 -2.92536,1.56676 -2.03294,1.77443 1.16876,0.27196 2.51982,-2.39931 3.25362,-1.4902 0.72437,0.89739 -2.03274,1.17439 -3.08656,1.69657 -2.98187,1.47751 -4.23524,1.84018 -7.40693,3.00974 -1.39771,0.42347 -2.78284,0.88559 -4.19275,1.27059 -7.81285,2.13347 -15.89205,3.20044 -23.86852,4.59761 -9.8921,1.46426 -19.92498,3.22357 -29.94026,1.7443 -4.36571,-0.93042 -11.8308,-2.33897 -13.74171,-6.95812 -0.20254,-0.4895 -0.1871,-1.0369 -0.2808,-1.55553 0.12215,-0.51109 0.15545,-1.04952 0.36666,-1.53353 0.44884,-1.02875 1.55772,-2.22608 2.37564,-2.95026 0.44787,-0.39654 1.69534,-1.05894 2.04068,-1.35944 3.16626,-1.10651 4.36963,-1.59035 7.82312,-2.4714 6.36162,-1.62299 12.90058,-2.59897 19.43054,-3.34026 3.91677,-0.27701 11.96662,-1.11956 15.43428,1.25445 0.29996,0.20542 0.46046,0.55031 0.6908,0.8255 -0.0433,0.36389 0.0106,0.75089 -0.12997,1.09139 -0.43396,1.0448 -1.61273,2.11887 -2.43751,2.80044 -0.34553,0.28551 -1.11688,0.69819 -1.68019,1.03042 -0.32924,0.15546 -0.28436,0.12449 -0.68384,0.31507 -1.23704,0.38622 -2.45662,0.82677 -3.71082,1.15895 -5.57693,1.47701 -11.40488,2.13072 -17.17172,2.37225 l -5.78166,3.98287 c 5.89694,-0.35806 11.85095,-1.00821 17.57784,-2.4545 1.26001,-0.31821 2.48997,-0.73684 3.73479,-1.10533 5.60247,-2.23099 4.5351,-1.6471 11.98338,-6.08046 1.47008,-0.87499 4.08368,-3.04237 4.61513,-4.7489 0.13936,-0.44761 0.0213,-0.93306 0.0317,-1.39983 -0.31214,-0.41403 -0.527,-0.91355 -0.93602,-1.24196 -1.07066,-0.85962 -3.01911,-1.37217 -4.29642,-1.59081 -3.92902,-0.67245 -7.91366,-0.27692 -11.85418,7.4e-4 -6.55924,0.72926 -13.11997,1.71317 -19.52261,3.28369 -3.62401,0.88898 -4.5578,1.27491 -7.99794,2.4244 -5.22585,2.25783 -4.73959,1.91945 -11.61129,6.10983 -1.67338,1.02044 -3.68706,2.96721 -4.35056,4.81868 -0.19966,0.55708 -0.18426,1.16437 -0.27617,1.74649 0.13533,0.59351 0.15696,1.22131 0.40613,1.7803 2.20588,4.94975 9.63954,6.40017 14.44488,7.43549 10.07946,1.56441 20.19034,-0.14028 30.15765,-1.60035 7.97033,-1.37357 16.03419,-2.44161 23.85304,-4.51094 1.40877,-0.37285 2.79503,-0.81766 4.19275,-1.22652 3.64926,-1.17692 7.19486,-2.63569 10.49735,-4.53592 4.18309,-2.4069 7.4912,-3.68657 10.47649,-6.87364 0.56233,-0.60042 1.01365,-1.28727 1.52082,-1.93085 0.331,-0.68621 0.75986,-1.33685 0.99326,-2.05865 1.07905,-3.33684 -0.53988,-6.30254 -2.99293,-8.6363 -0.80893,-0.76954 -1.73625,-1.41663 -2.60463,-2.12475 -8.71424,-5.7023 -18.89486,-8.05488 -29.09089,-10.07802 -8.6828,-1.52339 -17.51466,-2.22689 -26.34239,-1.92497 -5.79749,0.19831 -7.74995,0.54041 -13.5282,1.20227 -8.99138,1.32368 -17.84581,3.48325 -26.40506,6.42492 -5.03586,1.73076 -6.4602,2.42501 -11.29104,4.461 -7.82236,3.90841 -15.90511,7.78045 -22.30667,13.70101 -2.57083,2.3777 -3.11706,3.28449 -5.21386,5.95707 -2.46628,3.90743 -3.92008,7.95421 -1.62141,12.32763 1.44849,2.75589 2.7842,3.45606 5.20536,5.50023 1.37769,0.78339 2.69792,1.66724 4.13318,2.35021 9.64918,4.59172 21.06576,5.57875 31.61351,6.75908 15.23938,1.44125 30.53366,2.18369 45.83018,2.78648 10.76454,0.26171 21.5399,1.00165 32.30972,0.4649 7.47875,-0.37272 8.83715,-0.7064 16.17459,-1.68556 11.03897,-2.09005 22.02518,-5.12978 32.138,-9.92231 1.65995,-0.78667 3.25627,-1.69009 4.88431,-2.53529 6.14868,-3.30339 12.21719,-6.55814 16.3788,-12.10508 1.53869,-2.05084 2.98655,-4.82198 3.79358,-7.22619 0.42862,-1.27682 0.63866,-2.61112 0.95769,-3.91677 1.08325,-7.26808 -0.46514,-14.38738 -4.19044,-20.79208 -0.80508,-1.38417 -1.77479,-2.67591 -2.66185,-4.01371 -4.86154,-6.61451 -11.24161,-12.05586 -18.81862,-15.71488 -1.68445,-0.81343 -3.45376,-1.45553 -5.18062,-2.18349 -13.56909,-4.86982 -28.09912,-5.95243 -42.43112,-6.928001 -15.96238,-0.996127 -31.99728,-0.832487 -47.94512,0.329769 -3.39141,0.247167 -6.77497,0.584612 -10.1624,0.876922 -15.94886,1.71548 -31.91337,4.21737 -47.19244,9.03217 -2.61058,0.82264 -5.16544,1.7984 -7.74808,2.69761 -2.35544,0.99135 -4.74915,1.90325 -7.06579,2.9745 -2.14178,0.99035 -4.25668,2.04151 -6.29997,3.20584 -7.11597,4.05479 -10.72407,5.85696 -16.0655,10.85579 -3.88329,3.63422 -4.90596,5.29828 -8.09078,9.42436 -3.95431,5.83695 -7.09329,12.18548 -7.94457,19.15427 -0.49493,4.05164 -0.20766,4.66932 0.21195,8.64291 1.38021,5.67764 4.27317,10.8966 9.12581,14.57574 3.5011,2.65441 5.23828,3.08422 9.36099,4.84587 13.56035,4.49374 28.04662,5.23126 42.24778,6.24864 16.35468,1.00259 32.66989,2.49035 49.01342,3.63107 15.98591,1.01722 31.99426,1.78207 48.01552,1.96611 9.25251,-0.084 18.51758,-0.5096 27.72477,-1.43731 -19.12154,2.64844 -38.24013,5.3454 -57.44147,7.40686 -19.02468,1.62117 -38.13651,2.81683 -57.24113,1.79423 -14.34747,-0.7778 -28.68864,-1.79401 -42.88907,-3.98214 -6.39208,-0.98975 -12.79728,-1.95152 -19.03989,-3.64065 -6.26947,-1.69641 -12.3232,-4.0485 -18.04894,-7.01611 -5.06591,-3.02625 -6.96556,-3.91446 -11.564107,-7.68301 -7.884327,-6.4613 -14.127957,-14.44816 -18.522383,-23.4199 -2.488356,-6.08893 -3.493081,-7.80018 -4.901334,-14.21146 -2.024828,-9.21817 -1.84288,-18.70543 0.806064,-27.78396 0.854195,-1.98056 1.522105,-4.04358 2.562066,-5.94164 2.046896,-3.73593 4.746879,-6.89643 7.970862,-9.7578 1.622174,-1.43972 3.462679,-2.638612 5.178279,-3.976277 0.202078,-0.157487 0.339641,-0.397093 0.573219,-0.508233 2.230747,-1.060709 4.525311,-1.99426 6.788078,-2.991383 2.518981,-0.81782 5.005696,-1.732824 7.557016,-2.453773 15.70276,-4.437159 32.11679,-6.036118 48.26771,-8.214739 24.55339,-2.905683 49.17328,-5.558622 73.90769,-6.529189 7.87986,-0.171693 12.65367,-0.341091 18.9811,-0.315812 z M 24.238701,156.27671 v 7.09765 c 0.721014,0.50277 1.440025,1.02046 2.159033,1.51955 4.927988,3.34316 10.014661,6.44348 15.191381,9.40381 l 6.413675,-0.40615 -3.234302,2.19305 c 7.275033,4.05648 14.697429,7.88046 22.10168,11.71509 10.403852,5.39063 21.016625,10.4207 32.076105,14.48026 7.500157,2.75305 11.255987,3.80297 18.957887,6.18622 21.56781,6.42511 43.87927,9.96562 66.16812,13.18911 23.89282,3.33829 47.87003,6.10013 71.90184,8.34326 20.72717,1.74823 41.50441,3.27811 62.31961,3.58482 4.26863,0.0628 8.53809,0.0128 12.80722,0.0206 17.02468,-0.16897 34.03647,-1.4281 50.85147,-3.99904 10.81266,-1.65322 13.59602,-2.3992 24.2259,-4.64976 14.5288,-3.47141 28.95646,-7.59804 42.49918,-13.78255 8.55079,-3.90485 13.16787,-6.89226 21.79455,-11.83846 9.76502,-6.31785 18.67747,-13.86327 25.97961,-22.72218 -0.14642,-1.77256 -0.28957,-3.41502 -0.43322,-5.00891 -0.20896,0.32247 -0.40739,0.65153 -0.62116,0.97093 -1.16353,1.5954 -2.26574,3.23288 -3.49114,4.78563 -7.47764,9.47539 -16.83028,17.4523 -27.11209,24.07209 -4.74735,3.17323 -3.7041,2.63494 -11.46664,6.22808 -13.56133,6.27739 -28.02697,10.48123 -42.60437,13.99848 -10.62263,2.27826 -13.43356,3.04005 -24.23905,4.71364 -16.80086,2.60219 -33.80342,3.89971 -50.81974,4.07174 -4.26188,-0.006 -8.52417,0.0463 -12.78555,-0.0169 -20.78763,-0.30636 -41.53855,-1.82492 -62.23608,-3.59584 -24.02036,-2.22346 -47.9841,-4.98997 -71.86238,-8.33372 -22.216,-3.23057 -44.45194,-6.78926 -65.94146,-13.22731 -7.55625,-2.36587 -11.47762,-3.48517 -18.83954,-6.21044 -11.004509,-4.07374 -21.569813,-9.0984 -31.910557,-14.50892 -13.747572,-7.12887 -27.572118,-14.19921 -40.323145,-22.90284 -2.512374,-1.75739 -5.03892,-3.53742 -7.526837,-5.37097 z m 1.608254,33.17991 0.273842,5.98276 c 1.566622,0.80148 3.136729,1.59623 4.700216,2.40309 11.511377,5.7098 23.280646,10.95811 35.362226,15.47985 7.295057,2.73031 12.192218,4.31098 19.598408,6.80608 21.425983,7.11003 43.214883,13.14413 65.030983,19.05144 21.53725,5.81325 43.33403,10.65283 65.24294,14.98996 7.19507,-0.0242 14.05953,-0.0276 20.48723,-0.002 -2.59809,-0.47454 -5.1961,-0.94963 -7.78908,-1.45273 -24.59734,-4.73305 -49.06024,-10.09252 -73.20762,-16.62704 -21.75739,-5.93357 -43.47844,-12.01719 -64.853049,-19.12414 -6.923963,-2.34482 -12.711572,-4.23915 -19.538846,-6.81048 -12.041628,-4.53516 -23.765543,-9.81066 -35.268622,-15.4659 -4.645735,-2.3969 -7.146702,-3.65269 -10.038628,-5.23069 z m 473.741535,59.30915 c -2.19502,1.59896 -2.22995,1.51546 -8.25787,4.48011 -11.03857,5.42891 -22.71451,9.64347 -34.73022,12.62874 -2.33772,0.50935 -3.56683,0.77089 -5.19685,1.13103 2.22115,0.12706 5.42514,0.31867 7.51369,0.43773 9.50928,-2.73496 18.76907,-6.24894 27.62032,-10.55467 4.64589,-2.25997 8.6272,-4.51557 12.69121,-6.87879 z" />
    <path
       style="fill:#c5b1a0;fill-opacity:1;stroke:none;stroke-width:0.385922px;stroke-linecap:butt;stroke-linejoin:miter;stroke-opacity:1"
       d="M 19.152446,40.75661 18.772978,9.8893233 31.971942,5.9030891 21.478324,10.706438 Z"
       id="path125200" />
    <path
       style="fill:#c5b1a0;fill-opacity:1;stroke:none;stroke-width:0.385922px;stroke-linecap:butt;stroke-linejoin:miter;stroke-opacity:1"
       d="m 24.201281,160.46844 0.03875,-18.64196 6.973829,-4.18682 -5.400658,4.42939 z"
       id="path125064" />
    <path
       style="fill:#f4dbc6;fill-opacity:1;stroke:none;stroke-width:0.385922px;stroke-linecap:butt;stroke-linejoin:miter;stroke-opacity:1"
       d="m 27.407081,223.52843 -2.844253,-31.30297 -4.47976,3.10788 5.739747,-6.40009 6.95967,-4.72408 -4.754066,6.23013 z"
       id="path72327"
       sodipodi:nodetypes="ccccccc" />
    <path
       style="fill:#000000;fill-opacity:0.193548;stroke:none;stroke-width:0.385922px;stroke-linecap:butt;stroke-linejoin:miter;stroke-opacity:1"
       d="m 24.201281,160.46844 c 0,0 206.519079,-25.52777 285.941049,-49.24413 C 397.311,85.194685 498.72811,9.1887521 498.72811,9.1887521 l 2.37639,11.2810349 -19.01126,2.256208 17.427,6.016552 5.54496,47.380348 -12.67418,2.25621 7.92135,6.768623 -1.58427,55.653102 h -11.08991 l 7.12923,18.04966 3.28272,39.99194 0.095,18.05669 -3.0535,5.87914 -27.25694,7.51879 36.43827,2.25621 -10.64785,36.85138 -210.6399,-13.06327 -231.021987,0.27809 -22.179823,-8.27275 -0.248318,-9.10719 16.091037,1.58649 -18.219126,-17.29758 0.621339,-33.08913 4.754089,-6.23013 15.220104,-10.31731 -23.764075,1.50415 z"
       id="path75854"
       sodipodi:nodetypes="csccccccccccccccccccccccccccc" />
    <path
       style="fill:#c5b1a0;fill-opacity:1;stroke:none;stroke-width:0.385922px;stroke-linecap:butt;stroke-linejoin:miter;stroke-opacity:1"
       d="m 27.407057,223.52843 -1.386477,-32.91395 6.761905,-6.40531 -4.75409,6.23013 z"
       id="path109753" />
    <path
       style="fill:#d99e75;fill-opacity:1;stroke:none;stroke-width:0.385922px;stroke-linecap:butt;stroke-linejoin:miter;stroke-opacity:1"
       d="m 498.19491,253.59451 2.93451,-19.26476 -23.52195,-3.41871 26.66554,1.64222 z"
       id="path137487"
       sodipodi:nodetypes="ccccc" />
    <path
       style="fill:#d99e75;fill-opacity:1;stroke:none;stroke-width:0.385922px;stroke-linecap:butt;stroke-linejoin:miter;stroke-opacity:1"
       d="m 500.12313,91.797307 -0.82371,-6.194102 -3.05899,-3.930818 4.07194,3.475341 z"
       id="path139522"
       sodipodi:nodetypes="ccccc" />
    <path
       style="fill:#d99e75;fill-opacity:1;stroke:none;stroke-width:0.385922px;stroke-linecap:butt;stroke-linejoin:miter;stroke-opacity:1"
       d="m 500.62379,38.173016 -1.91822,-8.177529 -6.37091,-3.734172 7.18558,2.481232 z"
       id="path139590"
       sodipodi:nodetypes="ccccc" />
    <path
       style="fill:#d99e75;fill-opacity:1;stroke:none;stroke-width:0.385922px;stroke-linecap:butt;stroke-linejoin:miter;stroke-opacity:1"
       d="m 499.94639,14.957049 -2.72302,-4.613002 -4.19558,-1.2674898 5.70031,0.1121922 z"
       id="path139666"
       sodipodi:nodetypes="ccccc" />
  </g>
  <g
     inkscape:groupmode="layer"
     id="layer5"
     inkscape:label="Warstwa 3">
    <path
       style="fill:#4e3927;fill-opacity:1;stroke:none;stroke-width:0.385922px;stroke-linecap:butt;stroke-linejoin:miter;stroke-opacity:1"
       d="m 76.162984,48.477932 2.70704,33.820721 6.344161,0.69622 -8.269298,4.961496 -4.512935,65.096521 5.729277,59.36555 9.123882,1.42383 -9.783695,12.11981 -1.048507,14.29916 89.470791,-4.54866 90.0175,10.86459 105.73828,-1.68358 75.32689,7.23351 -9.54931,-4.42849 14.18782,-12.44851 1.50272,-43.72125 -8.32812,-1.0548 8.69476,-1.95684 -6.75859,-2.57283 5.92606,-1.55641 -0.92153,-53.76713 -10.33773,-4.0455 14.62813,-2.76121 1.60179,-38.747327 2.06026,-32.358517 -10.15483,-25.858045 -143.30069,8.407324 -81.47624,11.999258 -72.17684,-9.1415 -38.79095,2.598019 z"
       id="path141399" />
    <path
       style="fill:#c5a689;fill-opacity:1;stroke:none;stroke-width:0.385922px;stroke-linecap:butt;stroke-linejoin:miter;stroke-opacity:1"
       d="m 73.749923,44.738683 2.70704,33.82072 6.344173,0.69622 -8.26931,4.961496 -4.512923,65.096531 5.729276,59.36554 9.123883,1.42384 -9.783695,12.1198 -1.048507,14.29916 89.47078,-4.54867 90.01751,10.86461 105.73828,-1.68358 75.32688,7.2335 -9.54932,-4.42849 14.18783,-12.4485 1.50273,-43.72127 -8.32814,-1.05479 8.69478,-1.95684 -6.75859,-2.57284 5.92606,-1.5564 -0.92155,-53.76713 -10.33773,-4.0455 14.62814,-2.76121 1.60179,-38.747327 2.06026,-32.358516 -10.15482,-25.858046 -143.30069,8.407325 -81.47625,11.999258 -72.17683,-9.141501 -38.79096,2.598019 z"
       id="path140327" />
    <path
       style="fill:#caad93;fill-opacity:1;stroke:none;stroke-width:0.370904px;stroke-linecap:butt;stroke-linejoin:miter;stroke-opacity:1"
       d="m 117.40083,80.674781 c 0,0 55.45607,35.717599 33.89296,38.997259 -21.56312,3.27966 -26.68354,18.80857 -26.68354,18.80857 l -14.03536,45.76134 c 0,0 -8.43384,26.46757 20.00098,18.59439 28.43484,-7.87317 67.19639,-13.05153 67.19639,-13.05153 0,0 71.34799,4.97711 62.76716,17.5517 -8.58083,12.5746 80.80177,0.0372 80.80177,0.0372 0,0 74.50064,-26.32891 56.01455,-36.58989 -18.48607,-10.26099 -11.80314,-40.56884 -11.80314,-40.56884 0,0 23.66519,-21.34755 14.82712,-33.085681 -8.83805,-11.738119 -54.07609,-19.706526 -54.07609,-19.706526 0,0 3.76206,-18.787758 -11.33198,-22.83319 -15.09404,-4.045436 -95.12572,-6.173057 -94.23073,3.545584 0.895,9.718642 -32.14546,31.523464 -59.14307,25.490771 -26.99762,-6.032702 -39.25397,-41.363136 -58.11009,-26.620818 -18.85611,14.742319 -6.08693,23.669627 -6.08693,23.669627 z"
       id="path142046" />
    <path
       style="fill:#33302d;fill-opacity:1;stroke:none;stroke-width:0.211769px;stroke-linecap:butt;stroke-linejoin:miter;stroke-opacity:1"
       d="m 103.69809,51.20884 v 3.043922 l 4.51585,8.678431 12.64171,-1.916959 0.3927,-9.85682 -0.085,-3.146138 z"
       id="path144814" />
    <path
       style="fill:#b4aea9;fill-opacity:1;stroke:none;stroke-width:0.211769px;stroke-linecap:butt;stroke-linejoin:miter;stroke-opacity:1"
       d="m 111.44327,43.092836 -7.74518,8.116004 4.48912,8.988412 12.64374,-1.710624 0.33232,-10.475352 z"
       id="path144266"
       sodipodi:nodetypes="cccccc" />
    <path
       style="fill:#33302d;fill-opacity:1;stroke:none;stroke-width:0.211769px;stroke-linecap:butt;stroke-linejoin:miter;stroke-opacity:1"
       d="m 395.99846,50.138121 v 3.043922 l 4.51584,8.678432 12.64172,-1.916959 0.3927,-9.85682 -0.085,-3.146139 z"
       id="path147321" />
    <path
       style="fill:#b4aea9;fill-opacity:1;stroke:none;stroke-width:0.211769px;stroke-linecap:butt;stroke-linejoin:miter;stroke-opacity:1"
       d="m 403.74364,42.022117 -7.74518,8.116004 4.48912,8.988413 12.64373,-1.710624 0.33233,-10.475353 z"
       id="path147323"
       sodipodi:nodetypes="cccccc" />
    <path
       style="fill:#33302d;fill-opacity:1;stroke:none;stroke-width:0.211769px;stroke-linecap:butt;stroke-linejoin:miter;stroke-opacity:1"
       d="m 392.07065,215.63505 v 3.0439 l 4.51583,8.67843 12.64171,-1.91696 0.39271,-9.85681 -0.085,-3.14613 z"
       id="path147325" />
    <path
       style="fill:#b4aea9;fill-opacity:1;stroke:none;stroke-width:0.211769px;stroke-linecap:butt;stroke-linejoin:miter;stroke-opacity:1"
       d="m 399.81583,207.51904 -7.74518,8.11601 4.48911,8.98839 12.64374,-1.71062 0.33232,-10.47534 z"
       id="path147327"
       sodipodi:nodetypes="cccccc" />
    <path
       style="fill:#33302d;fill-opacity:1;stroke:none;stroke-width:0.211769px;stroke-linecap:butt;stroke-linejoin:miter;stroke-opacity:1"
       d="m 100.54768,215.19471 v 3.04392 l 4.51583,8.67843 12.64171,-1.91696 0.39272,-9.85681 -0.085,-3.14613 z"
       id="path147329" />
    <path
       style="fill:#b4aea9;fill-opacity:1;stroke:none;stroke-width:0.211769px;stroke-linecap:butt;stroke-linejoin:miter;stroke-opacity:1"
       d="m 108.29285,207.0787 -7.74517,8.11601 4.4891,8.98841 12.64374,-1.71063 0.33232,-10.47533 z"
       id="path147331"
       sodipodi:nodetypes="cccccc" />
    <text
       xml:space="preserve"
       transform="scale(0.26458333)"
       id="text151315"
       style="fill:black;fill-opacity:1;line-height:1.25;stroke:none;font-family:sans-serif;font-style:normal;font-weight:normal;font-size:40px;white-space:pre;shape-inside:url(#rect151317)" />
    <text
       xml:space="preserve"
       transform="scale(0.26458333)"
       id="text157473"
       style="font-style:normal;font-weight:normal;font-size:40px;line-height:1.25;font-family:sans-serif;white-space:pre;shape-inside:url(#rect157475);fill:#000000;fill-opacity:1;stroke:none" />
  </g>
</svg>
