<?xml version="1.0" encoding="UTF-8" standalone="no"?>
<!-- Created with Inkscape (http://www.inkscape.org/) -->

<svg
   width="1920"
   height="1080"
   viewBox="0 0 508 285.75"
   version="1.1"
   id="svg14076"
   sodipodi:docname="Plank_SVG.svg.2022_04_26_21_29_24.0.svg"
   inkscape:export-filename="C:\Users\jakka\Documents\GitHub\RoguePunk_Project\Assets\Sprites\BackGround1920x1080.png"
   inkscape:export-xdpi="96"
   inkscape:export-ydpi="96"
   inkscape:version="1.1.2 (b8e25be833, 2022-02-05)"
   xmlns:inkscape="http://www.inkscape.org/namespaces/inkscape"
   xmlns:sodipodi="http://sodipodi.sourceforge.net/DTD/sodipodi-0.dtd"
   xmlns:xlink="http://www.w3.org/1999/xlink"
   xmlns="http://www.w3.org/2000/svg"
   xmlns:svg="http://www.w3.org/2000/svg">
  <sodipodi:namedview
     id="namedview14078"
     pagecolor="#ffffff"
     bordercolor="#666666"
     borderopacity="1.0"
     inkscape:pageshadow="2"
     inkscape:pageopacity="0.0"
     inkscape:pagecheckerboard="0"
     inkscape:document-units="mm"
     showgrid="false"
     units="px"
     inkscape:zoom="0.5"
     inkscape:cx="1016.5426"
     inkscape:cy="613.44776"
     inkscape:window-width="1920"
     inkscape:window-height="1017"
     inkscape:window-x="-8"
     inkscape:window-y="-8"
     inkscape:window-maximized="1"
     inkscape:current-layer="layer1" />
  <defs
     id="defs14073">
    <linearGradient
       inkscape:collect="always"
       id="linearGradient180563">
      <stop
         style="stop-color:#000000;stop-opacity:1;"
         offset="0"
         id="stop180559" />
      <stop
         style="stop-color:#000000;stop-opacity:0;"
         offset="1"
         id="stop180561" />
    </linearGradient>
    <rect
       x="271.4232"
       y="99.401824"
       width="1498.9687"
       height="150.18309"
       id="rect173281" />
    <rect
       x="592.8991"
       y="383.09991"
       width="638.61497"
       height="205.49935"
       id="rect157475" />
    <rect
       x="656.53259"
       y="269.92025"
       width="591.60755"
       height="170.51836"
       id="rect151317" />
    <linearGradient
       inkscape:collect="always"
       xlink:href="#linearGradient180563"
       id="linearGradient180565"
       x1="179.17593"
       y1="40.739908"
       x2="296.83917"
       y2="40.739908"
       gradientUnits="userSpaceOnUse" />
    <inkscape:path-effect
       effect="fill_between_many"
       method="originald"
       linkedpaths="#text181984,0,1|#text175267,0,1"
       id="path-effect182130" />
    <filter
       inkscape:label="Apparition"
       inkscape:menu="Blurs"
       inkscape:menu-tooltip="Edges are partly feathered out"
       style="color-interpolation-filters:sRGB;"
       id="filter191724"
       x="-0.16317755"
       y="-0.61848167"
       width="1.3263551"
       height="2.2369633">
      <feMorphology
         radius="4"
         in="SourceGraphic"
         result="result0"
         id="feMorphology191718" />
      <feGaussianBlur
         in="result0"
         stdDeviation="8"
         result="result91"
         id="feGaussianBlur191720" />
      <feComposite
         operator="in"
         in="SourceGraphic"
         in2="result91"
         id="feComposite191722" />
    </filter>
  </defs>
  <g
     inkscape:groupmode="layer"
     id="layer4"
     inkscape:label="Warstwa 2">
    <path
       style="fill:#673914;fill-opacity:1;stroke:none;stroke-width:0.385371px;stroke-linecap:butt;stroke-linejoin:miter;stroke-opacity:1"
       d="m 222.50553,243.90187 271.11969,24.74226 -12.19785,13.1255 -201.20259,-17.9981 -227.24405,0.18749 -29.606092,-10.68637 -0.792137,-10.12392 6.40887,-5.25136 44.80101,10.24668"
       id="path32979"
       sodipodi:nodetypes="ccccccccc" />
    <path
       style="fill:#94521d;fill-opacity:1;stroke:none;stroke-width:0.385371px;stroke-linecap:butt;stroke-linejoin:miter;stroke-opacity:1"
       d="m 45.626218,240.14713 -7.89922,5.80873 -18.204055,-18.02932 0.560128,-33.14212 5.739744,-6.38181 22.179809,-14.99842 z"
       id="path34469"
       sodipodi:nodetypes="ccccccc" />
    <path
       style="fill:#e3a26e;fill-opacity:1;stroke:none;stroke-width:0.385371px;stroke-linecap:butt;stroke-linejoin:miter;stroke-opacity:1"
       d="m 48.002624,173.40419 -8.59525,9.97934 -21.004677,0.26514 -1.120251,-39.77055 6.956097,-4.22035 z"
       id="path34740" />
    <path
       style="fill:#e3a26e;fill-opacity:1;stroke:none;stroke-width:0.385371px;stroke-linecap:butt;stroke-linejoin:miter;stroke-opacity:1"
       d="m 50.379031,130.65872 -9.011225,11.36344 -37.2482939,-5.30275 0.5601276,-16.17335 9.2611323,-7.13552 z"
       id="path34808" />
    <path
       style="fill:#e3a26e;fill-opacity:1;stroke:none;stroke-width:0.385371px;stroke-linecap:butt;stroke-linejoin:miter;stroke-opacity:1"
       d="M 44.041951,108.91102 29.90975,122.03654 6.9377974,107.03811 3.7692525,16.672665 18.693589,8.4216442 Z"
       id="path34876" />
    <path
       style="fill:#673914;fill-opacity:1;stroke:none;stroke-width:0.385371px;stroke-linecap:butt;stroke-linejoin:miter;stroke-opacity:1"
       d="M 19.485726,92.41277 6.9377974,107.03811 29.90975,122.03654 44.041951,108.91102 Z"
       id="path38909" />
    <path
       style="fill:#673914;fill-opacity:1;stroke:none;stroke-width:0.385371px;stroke-linecap:butt;stroke-linejoin:miter;stroke-opacity:1"
       d="m 13.148635,126.90911 -9.0291229,9.8103 37.2482939,5.30275 9.011225,-11.36344 z"
       id="path40165" />
    <path
       style="fill:#673914;fill-opacity:1;stroke:none;stroke-width:0.385371px;stroke-linecap:butt;stroke-linejoin:miter;stroke-opacity:1"
       d="m 24.238543,174.90404 -5.835846,8.74463 21.004677,-0.26514 8.59525,-9.97934 z"
       id="path40299" />
    <path
       style="fill:#673914;fill-opacity:1;stroke:none;stroke-width:0.385371px;stroke-linecap:butt;stroke-linejoin:miter;stroke-opacity:1"
       d="m 19.522941,227.92654 7.884151,-5.02758 18.219126,17.24817 -7.89922,5.80873 z"
       id="path40367" />
    <path
       style="fill:#94521d;fill-opacity:1;stroke:none;stroke-width:0.385371px;stroke-linecap:butt;stroke-linejoin:miter;stroke-opacity:1"
       d="m 28.991371,237.89737 -6.408872,5.25136 0.792136,10.12392 6.408864,-5.6263 z"
       id="path55587" />
    <path
       style="fill:#673914;fill-opacity:1;stroke:none;stroke-width:0.385371px;stroke-linecap:butt;stroke-linejoin:miter;stroke-opacity:1"
       d="m 495.09172,222.15094 -12.87222,16.68573 -33.46775,-6.56181 41.78518,-14.061 z"
       id="path62722" />
    <path
       style="fill:#673914;fill-opacity:1;stroke:none;stroke-width:0.385371px;stroke-linecap:butt;stroke-linejoin:miter;stroke-opacity:1"
       d="m 498.7281,140.40768 -19.62271,19.37865 5.04115,-29.16506 z"
       id="path69287" />
    <path
       style="fill:#673914;fill-opacity:1;stroke:none;stroke-width:0.385371px;stroke-linecap:butt;stroke-linejoin:miter;stroke-opacity:1"
       d="m 505.0652,75.914507 -11.11649,19.70867 -6.72152,-23.597191 z"
       id="path69355" />
    <path
       style="fill:#673914;fill-opacity:1;stroke:none;stroke-width:0.385371px;stroke-linecap:butt;stroke-linejoin:miter;stroke-opacity:1"
       d="M 501.1045,20.420375 489.46771,34.641665 474.90444,18.46831 Z"
       id="path69423" />
    <path
       style="fill:#94521d;fill-opacity:1;stroke:none;stroke-width:0.385371px;stroke-linecap:butt;stroke-linejoin:miter;stroke-opacity:1"
       d="m 24.201281,160.01911 -6.434601,5.63376 0.636017,17.9958 5.835846,-8.74463 z"
       id="path76902" />
  </g>
  <g
     inkscape:label="Warstwa 1"
     inkscape:groupmode="layer"
     id="layer1"
     style="display:inline">
    <path
       style="fill:#000000;stroke-width:0.298489;stroke-linejoin:round"
       d=""
       id="path14742"
       transform="scale(0.26458333)" />
    <path
       style="fill:#000000;stroke-width:0.298489;stroke-linejoin:round"
       d=""
       id="path14781"
       transform="scale(0.26458333)" />
    <path
       style="fill:#000000;stroke-width:0.298489;stroke-linejoin:round"
       d=""
       id="path14820"
       transform="scale(0.26458333)" />
    <path
       style="fill:none;stroke:none;stroke-width:0.385371px;stroke-linecap:butt;stroke-linejoin:miter;stroke-opacity:1"
       d="m 29.783487,247.64635 -1.088494,-9.11433 -6.112494,4.61671 6.408872,-5.25136 16.634847,2.24976 -16.091037,-1.58196 z"
       id="path71012" />
    <path
       style="fill:#f4dbc6;fill-opacity:1;stroke:none;stroke-width:0.385371px;stroke-linecap:butt;stroke-linejoin:miter;stroke-opacity:1"
       d="m 29.783499,247.64635 -1.878849,-7.89571 -5.322151,3.39809 6.408861,-5.25136 16.634858,2.24976 -15.122363,-0.6777 z"
       id="path71971" />
    <path
       style="fill:none;stroke:none;stroke-width:0.385371px;stroke-linecap:butt;stroke-linejoin:miter;stroke-opacity:1"
       d="m 27.407092,222.89896 -2.844264,-31.21354 -4.47976,3.099 5.739747,-6.38181 22.179809,-14.99842 -19.974205,16.50017 z"
       id="path72105" />
    <path
       style="fill:#c37430;fill-opacity:1;stroke:none;stroke-width:0.385371px;stroke-linecap:butt;stroke-linejoin:miter;stroke-opacity:1"
       d="m 46.418357,3.1722001 -27.724768,5.2494441 0.792137,83.9911258 24.556225,16.49825 -30.101178,4.49952 -0.792136,13.49857 37.230394,3.74961 -26.140488,8.99905 v 35.24627 l 23.764081,-1.49985 -22.179809,14.99842 1.584277,34.49635 18.219126,17.24817 -16.634858,-2.24976 0.792139,9.74898 22.179811,8.24912 c 0,0 216.94644,-5.02589 230.16154,-0.74992 6.70431,2.1693 211.50037,13.49858 211.50037,13.49858 l 10.64785,-36.74612 -36.43827,-2.24976 c 0,0 19.80341,-6.74929 26.93263,-7.49922 7.12924,-0.7499 0,-63.74325 0,-63.74325 l -7.12922,-17.9981 h 11.0899 l 1.58426,-55.494122 -7.92134,-6.749287 12.67417,-2.249761 -5.54494,-47.245007 -17.42701,-5.999364 19.01128,-2.249763 -2.37642,-11.2488107 c 0,0 -131.49461,-2.9996833 -193.28123,5.2494457 C 243.66025,22.670139 46.418357,3.1722001 46.418357,3.1722001 Z"
       id="path70382" />
    <path
       style="fill:#f4dbc6;fill-opacity:1;stroke:none;stroke-width:0.385371px;stroke-linecap:butt;stroke-linejoin:miter;stroke-opacity:1"
       d="m 24.201281,160.01911 -1.292442,-17.62952 -5.626396,1.48853 6.9561,-4.22035 6.975301,-2.40222 -5.400662,4.41673 z"
       id="path72645" />
    <path
       style="fill:#f4dbc6;fill-opacity:1;stroke:none;stroke-width:0.385371px;stroke-linecap:butt;stroke-linejoin:miter;stroke-opacity:1"
       d="m 13.535238,120.13536 -0.949339,-4.75576 -7.9062593,5.16646 9.2611323,-7.13552 8.342925,-1.2574 -7.347514,2.4727 z"
       id="path72713" />
    <path
       style="fill:#f4dbc6;fill-opacity:1;stroke:none;stroke-width:0.385371px;stroke-linecap:butt;stroke-linejoin:miter;stroke-opacity:1"
       d="M 19.15245,40.649248 16.858511,11.355315 3.7692525,16.672665 18.693589,8.4216442 31.971942,5.8952881 21.478324,10.684916 Z"
       id="path72781" />
    <path
       style="fill:#c5b1a0;fill-opacity:1;stroke:none;stroke-width:0.385371px;stroke-linecap:butt;stroke-linejoin:miter;stroke-opacity:1"
       d="m 13.535238,120.13536 v -5.54956 l 8.748459,-2.43266 -7.347514,2.4727 z"
       id="path125132" />
    <path
       id="path125418"
       style="fill:#391e0a;fill-opacity:0.424682;stroke:none;stroke-width:4.72506;stroke-linejoin:round;stroke-opacity:1"
       d="m 339.64351,11.299453 c -4.08473,0.259952 -8.14431,0.524848 -11.99963,0.834872 15.4769,5.328891 30.83422,10.961265 46.09551,16.827813 15.69507,6.068964 31.40697,12.112639 46.88147,18.678443 2.55947,1.157312 5.14223,2.269422 7.67845,3.472048 12.00241,5.691267 23.42969,12.39894 34.2421,19.941737 12.99449,9.353758 25.52833,19.297863 37.3101,30.014414 l 0.21503,-7.529966 c -10.28902,-9.056516 -21.07011,-17.599767 -32.23469,-25.662091 -10.82786,-7.582628 -22.293,-14.30803 -34.3349,-20.003254 -2.54854,-1.205314 -5.14536,-2.316774 -7.71794,-3.474974 C 410.29968,37.82206 394.59237,31.748225 378.88364,25.688557 365.87962,20.703302 352.80089,15.901583 339.64351,11.299453 Z M 71.814054,26.300066 c -10.115925,0.03335 -20.227252,0.391555 -30.303851,1.283799 -10.291052,0.911237 -13.467434,1.583818 -22.606044,3.139561 l 0.0232,2.490703 c 5.691233,-1.016969 9.916269,-1.732224 18.139456,-2.514872 20.247866,-1.927105 40.651107,-1.683248 60.954268,-0.915428 34.512617,1.763933 69.018737,3.884379 103.400847,7.291222 14.61677,1.647429 18.65698,2.010959 33.17766,4.009584 21.04277,2.896322 41.96974,6.499662 62.82631,10.416868 28.09101,5.410349 56.15707,11.047472 83.80551,18.272726 9.90313,2.668683 14.0963,3.68646 23.78112,6.72878 13.47843,4.234026 26.63395,9.344353 39.31364,15.419518 15.37183,7.503676 30.68098,15.323223 43.97746,25.949163 3.80455,3.218 7.66364,6.46377 10.7774,10.18252 l 0.24521,-8.60505 C 497.50509,117.81997 495.60376,116.24703 493.714,114.675 480.27133,104.08396 464.85465,96.268912 449.37758,88.769048 436.6249,82.685251 423.3792,77.610904 409.81719,73.411052 400.05099,70.386666 395.87179,69.389036 385.8883,66.738662 358.12769,59.607794 329.9806,53.975537 301.7958,48.607278 275.4596,43.662335 248.9884,39.335536 222.35165,36.133254 216.77418,35.462728 211.18486,34.883495 205.60153,34.258453 171.20042,30.86784 136.67467,28.773217 102.14731,26.965766 92.050903,26.558254 81.92999,26.266724 71.814054,26.300066 Z M 192.71461,57.830422 c -22.5622,-0.136417 -45.115,0.901423 -67.55977,3.079511 -4.15231,0.402948 -8.29415,0.896353 -12.44134,1.344582 -18.705688,2.389798 -37.403801,5.748041 -55.249941,11.723373 -3.338213,1.117718 -6.604299,2.422229 -9.906354,3.633159 -8.124417,3.605078 -10.19876,4.269648 -17.782831,8.613835 -4.125599,2.363179 -7.310398,4.140002 -10.290039,6.044768 l 0.0015,0.142808 1.30424,0.876621 c 0.710428,-0.544308 1.120088,-0.85413 1.995039,-1.546717 0.782796,-0.61963 1.437311,-1.398013 2.299053,-1.914345 6.649775,-3.984312 10.675909,-5.53477 17.818426,-8.744199 3.299218,-1.222765 6.562054,-2.538709 9.897831,-3.668305 17.873552,-6.052517 36.614549,-9.47913 55.362886,-11.940879 4.15898,-0.461614 8.31258,-0.969068 12.47691,-1.384865 22.46693,-2.243251 45.05002,-3.315758 67.64102,-3.204736 11.19008,0.136771 16.96902,0.115233 28.1479,0.620296 18.37317,0.830095 36.70503,2.573473 54.89875,5.134467 4.39965,0.691195 8.81228,1.309857 13.19866,2.073265 19.56822,3.405678 38.8553,8.246608 57.76482,14.097639 3.14553,1.049842 6.31202,2.04532 9.4368,3.149809 13.30709,4.70347 26.29444,10.366847 38.37452,17.481791 9.95109,6.3353 19.94667,13.00364 27.34728,22.09849 0.86342,1.22406 1.82183,2.39217 2.59068,3.67198 2.66312,4.43318 4.0395,9.59235 3.21417,14.68717 -0.20802,1.28419 -0.65014,2.52428 -0.97548,3.78622 -1.43642,3.39514 -1.63077,4.32138 -3.75258,7.42816 -3.84967,5.63666 -9.27195,10.05668 -14.92682,13.98631 0.11111,0.73489 0.15328,1.07942 0.0402,1.29039 1.95043,-1.15203 3.87231,-2.2943 5.96264,-3.51744 5.71427,-4.01501 11.19534,-8.52099 15.0452,-14.27558 2.13089,-3.18526 2.30908,-4.12121 3.72703,-7.59588 1.65015,-5.08 1.49374,-10.23302 -0.58015,-15.1837 -1.49504,-3.56901 -2.28769,-4.27798 -4.59269,-7.48823 -7.55385,-9.11444 -17.64202,-15.80936 -27.71162,-22.16879 -12.2147,-7.084826 -25.32835,-12.70994 -38.7435,-17.403433 -3.14395,-1.099982 -6.32833,-2.093094 -9.49248,-3.139562 -19.03923,-5.81591 -38.46657,-10.543523 -58.14699,-13.940911 -4.39644,-0.758944 -8.81712,-1.384515 -13.22573,-2.076927 -18.22613,-2.552618 -36.58848,-4.301958 -54.99234,-5.137399 -11.15428,-0.506347 -17.011,-0.490146 -28.175,-0.632746 z M 403.64024,170.39102 c -0.17618,0.10402 -0.36265,0.21438 -0.53842,0.31785 0.29902,-0.0798 0.459,-0.16969 0.53842,-0.31785 z m -0.53842,0.31785 c -0.76857,0.20511 -2.39665,0.44403 -5.67725,2.04618 -9.48214,4.63081 -19.57958,8.03386 -29.78787,10.88483 -7.40934,1.96026 -10.10913,2.7642 -17.6869,4.39991 -10.22379,2.2069 -20.56603,3.85291 -30.92893,5.34906 0.92768,-0.16792 1.85765,-0.32368 2.78643,-0.48554 12.16333,-2.54699 24.13361,-6.17997 35.4218,-11.22099 1.92912,-0.86147 3.79599,-1.84323 5.69423,-2.7646 6.59568,-3.4191 12.99816,-6.96776 18.17584,-12.18037 3.3421,-3.36463 5.36359,-6.53459 7.74111,-10.51205 3.07792,-5.75539 4.63364,-11.98374 4.36911,-18.45508 -0.19217,-4.70156 -0.80862,-6.26897 -1.91072,-10.85629 -2.48211,-7.86588 -6.84663,-14.86277 -12.90703,-20.71508 -4.59589,-4.4381 -6.23661,-5.25772 -11.57568,-8.976351 -14.19781,-8.653924 -30.46211,-13.335031 -46.84048,-16.629349 -4.02682,-0.809928 -8.0885,-1.454842 -12.13267,-2.182384 -16.90823,-2.697641 -34.01812,-4.178436 -51.15545,-4.579349 -10.58009,-0.247516 -15.44507,-0.0285 -26.02447,0.192605 -24.69704,0.917813 -49.27989,3.53795 -73.80171,6.368471 -16.05602,2.101553 -32.36143,3.622875 -47.99541,7.906394 -2.53962,0.695846 -5.01844,1.579085 -7.52762,2.368393 -10.287918,4.233677 -20.90497,9.310005 -27.836935,18.00323 -3.668349,4.60042 -3.776716,5.95733 -5.990525,11.31179 -2.542137,9.16133 -2.637277,18.68489 -0.543822,27.94188 1.465097,6.47841 2.446914,8.12086 4.987207,14.27631 4.436211,9.01193 10.719923,17.05556 18.617524,23.59906 4.615711,3.8243 6.480754,4.71366 11.564111,7.80461 5.72309,3.0343 11.79381,5.42477 18.08839,7.15352 6.26134,1.71965 12.68642,2.70177 19.1041,3.70274 14.26178,2.19877 28.66929,3.18317 43.08169,3.91879 19.22045,0.97987 38.44005,-0.26092 57.57453,-1.91655 21.79441,-2.35668 43.49061,-5.46844 65.20347,-8.41464 13.37331,-1.84489 26.75927,-3.74891 39.95724,-6.54497 7.58483,-1.60689 10.21171,-2.37932 17.62737,-4.30911 10.18295,-2.78835 20.2453,-6.14972 29.71826,-10.70468 3.77144,-1.81345 7.18333,-3.76235 10.61106,-5.78039 z M 245.11241,76.854535 c 2.10914,0.0083 4.39098,0.03874 7.01784,0.0974 17.09958,0.381852 34.1705,1.85474 51.03864,4.561766 4.02156,0.732481 8.0616,1.378514 12.06459,2.197767 16.20513,3.316652 32.25151,8.097372 46.26724,16.715032 5.30593,3.72454 6.84826,4.48169 11.40399,8.92215 5.95334,5.80271 10.2575,12.71849 12.64789,20.50345 1.04347,4.49056 1.66581,6.13401 1.79544,10.73252 0.18094,6.41735 -1.52762,12.56688 -4.63137,18.2339 -2.37349,3.87142 -4.46812,7.06611 -7.77359,10.32606 -4.90004,4.83262 -2.03476,1.54642 -7.63747,6.06748 -0.16887,0.13619 0.43327,-0.0876 0.64979,-0.1311 -1.91035,0.94731 -3.78764,1.95843 -5.73138,2.84222 -11.26247,5.12111 -23.24397,8.77057 -35.40167,11.38064 -2.53471,0.45166 -5.06012,0.95389 -7.60419,1.35485 -13.11504,2.06684 -26.42456,2.88388 -39.70582,3.02092 -16.02531,-0.16161 -32.03867,-0.92268 -48.03023,-1.90555 -16.3345,-1.14238 -32.64078,-2.62158 -48.98558,-3.63757 -14.07538,-1.02096 -28.41959,-1.80306 -41.86409,-6.22712 -3.9857,-1.70116 -5.74966,-2.15434 -9.14129,-4.70678 -4.73838,-3.56594 -7.55783,-8.63301 -8.86202,-14.16134 -0.3989,-3.84987 -0.68279,-4.50412 -0.18797,-8.43075 0.86151,-6.83688 3.99983,-13.06321 7.91516,-18.77366 3.21931,-4.10188 4.17144,-5.6552 8.10084,-9.25464 1.58507,-1.45194 3.42842,-2.63371 5.01196,-4.0872 0.16796,-0.15438 -0.0469,-0.53174 0.15007,-0.65106 4.33399,-2.6277 8.74812,-4.31175 13.42068,-6.31135 2.59342,-0.91959 5.15819,-1.91734 7.78057,-2.75948 15.28169,-4.90748 31.27382,-7.46684 47.25742,-9.19897 3.38206,-0.29441 6.75996,-0.63522 10.14615,-0.88321 15.86831,-1.16211 31.8297,-1.31085 47.70919,-0.26291 14.19551,1.00853 28.58664,2.09814 42.0242,6.92212 1.70163,0.71471 3.44464,1.34558 5.1048,2.14358 7.47887,3.59486 13.8035,8.93111 18.61445,15.43196 0.87017,1.31444 1.82493,2.58207 2.6108,3.94367 3.62957,6.28861 5.05954,13.28547 3.90496,20.38555 -0.33485,1.27088 -0.56373,2.5714 -1.00487,3.81258 -0.84699,2.38302 -2.2751,4.99153 -3.84927,7.01073 -8.70838,11.1701 3.37831,-5.19898 -6.43999,6.04185 -0.29756,0.3407 0.89488,-0.24714 1.34216,-0.37058 -1.63121,0.86469 -3.2287,1.78944 -4.89362,2.59397 -10.12089,4.89065 -21.15613,7.99124 -32.23004,10.18179 -7.35653,1.02322 -8.65978,1.36443 -16.1568,1.7547 -10.74441,0.55929 -21.49565,-0.19545 -32.23467,-0.46651 -15.2732,-0.59724 -30.54536,-1.33518 -45.76134,-2.76973 -10.33067,-1.16465 -21.75061,-2.1951 -31.18262,-6.70241 -1.38901,-0.66379 -2.6657,-1.52123 -3.99859,-2.28198 -2.26777,-1.93207 -3.58328,-2.64175 -4.923,-5.2392 -2.09427,-4.06039 -0.55019,-8.14922 1.83181,-11.70213 2.1137,-2.63019 2.6063,-3.45087 5.19221,-5.78624 6.26881,-5.66163 0.44307,0.0707 7.28936,-5.43622 0.34036,-0.27375 -1.60922,0.7271 -1.22071,0.51924 1.62562,-0.8698 3.29017,-1.67103 4.93539,-2.50682 4.81558,-2.05952 6.29853,-2.78828 11.31966,-4.54346 8.53237,-2.98261 17.37215,-5.16269 26.34859,-6.52225 5.63518,-0.66048 7.81285,-1.02928 13.47172,-1.24498 8.78034,-0.33473 17.57299,0.33254 26.21012,1.84842 10.06453,2.00406 20.02567,4.3128 28.60276,9.97161 3.24349,2.68002 6.77079,5.469 5.05376,10.03165 -0.25451,0.67634 -0.68802,1.27921 -1.03196,1.91874 -0.50926,0.60503 -0.96819,1.2514 -1.52779,1.81475 -0.63078,0.63499 -2.92536,1.56228 -2.03294,1.76935 1.16876,0.27119 2.51982,-2.39245 3.25362,-1.48594 0.72437,0.89483 -2.03274,1.17104 -3.08656,1.69172 -2.98187,1.47329 -4.23524,1.83493 -7.40693,3.00116 -1.39771,0.42226 -2.78284,0.88305 -4.19275,1.26695 -7.81285,2.12737 -15.89205,3.1913 -23.86852,4.58448 -9.8921,1.46007 -19.92498,3.21436 -29.94026,1.73931 -4.36571,-0.92776 -11.8308,-2.33228 -13.74171,-6.93824 -0.20254,-0.4881 -0.1871,-1.03393 -0.2808,-1.55109 0.12215,-0.50963 0.15545,-1.04652 0.36666,-1.52915 0.44884,-1.0258 1.55772,-2.21971 2.37564,-2.94182 0.44787,-0.39542 1.69534,-1.05593 2.04068,-1.35557 3.16626,-1.10335 4.36963,-1.5858 7.82312,-2.46434 6.36162,-1.61835 12.90058,-2.59154 19.43054,-3.33071 3.91677,-0.27622 11.96662,-1.11636 15.43428,1.25086 0.29996,0.20484 0.46046,0.54874 0.6908,0.82315 -0.0433,0.36285 0.0106,0.74874 -0.12997,1.08826 -0.43396,1.04183 -1.61273,2.11282 -2.43751,2.79244 -0.34553,0.28471 -1.11688,0.69621 -1.68019,1.02748 -0.32924,0.15502 -0.28436,0.12414 -0.68384,0.31417 -1.23704,0.38512 -2.45662,0.82441 -3.71082,1.15564 -5.57693,1.47279 -11.40488,2.12464 -17.17172,2.36547 l -5.78166,3.9715 c 5.89694,-0.35703 11.85095,-1.00533 17.57784,-2.44748 1.26001,-0.31731 2.48997,-0.73474 3.73479,-1.10219 5.60247,-2.22461 4.5351,-1.64238 11.98338,-6.06308 1.47008,-0.87249 4.08368,-3.03368 4.61513,-4.73533 0.13936,-0.44634 0.0213,-0.9304 0.0317,-1.39584 -0.31214,-0.41285 -0.527,-0.91093 -0.93602,-1.23841 -1.07066,-0.85717 -3.01911,-1.36824 -4.29642,-1.58627 -3.92902,-0.67053 -7.91366,-0.27612 -11.85418,7.4e-4 -6.55924,0.72718 -13.11997,1.70828 -19.52261,3.27431 -3.62401,0.88644 -4.5578,1.27127 -7.99794,2.41748 -5.22585,2.25137 -4.73959,1.91396 -11.61129,6.09237 -1.67338,1.01753 -3.68706,2.95874 -4.35056,4.80492 -0.19966,0.55549 -0.18426,1.16104 -0.27617,1.7415 0.13533,0.59181 0.15696,1.21782 0.40613,1.77522 2.20588,4.9356 9.63954,6.38189 14.44488,7.41425 10.07946,1.55993 20.19034,-0.13988 30.15765,-1.59579 7.97033,-1.36964 16.03419,-2.43463 23.85304,-4.49805 1.40877,-0.37178 2.79503,-0.81532 4.19275,-1.22301 3.64926,-1.17356 7.19486,-2.62817 10.49735,-4.52297 4.18309,-2.40002 7.4912,-3.67604 10.47649,-6.854 0.56233,-0.59871 1.01365,-1.28359 1.52082,-1.92534 0.331,-0.68425 0.75986,-1.33303 0.99326,-2.05276 1.07905,-3.32732 -0.53988,-6.28454 -2.99293,-8.61164 -0.80893,-0.76733 -1.73625,-1.41258 -2.60463,-2.11868 -8.71424,-5.68601 -18.89486,-8.03187 -29.09089,-10.04923 -8.6828,-1.51904 -17.51466,-2.22053 -26.34239,-1.91947 -5.79749,0.19774 -7.74995,0.53887 -13.5282,1.19884 -8.99138,1.3199 -17.84581,3.4733 -26.40506,6.40656 -5.03586,1.72582 -6.4602,2.41809 -11.29104,4.44826 -7.82236,3.89724 -15.90511,7.75822 -22.30667,13.66187 -2.57083,2.37092 -3.11706,3.27511 -5.21386,5.94006 -2.46628,3.89627 -3.92008,7.93148 -1.62141,12.29241 1.44849,2.74802 2.7842,3.44619 5.20536,5.48452 1.37769,0.78115 2.69792,1.66248 4.13318,2.3435 9.64918,4.5786 21.06576,5.56281 31.61351,6.73976 15.23938,1.43714 30.53366,2.17746 45.83018,2.77853 10.76454,0.26096 21.5399,0.99879 32.30972,0.46357 7.47875,-0.37166 8.83715,-0.70438 16.17459,-1.68074 11.03897,-2.08409 22.02518,-5.11513 32.138,-9.89397 1.65995,-0.78443 3.25627,-1.68526 4.88431,-2.52805 6.14868,-3.29395 12.21719,-6.53941 16.3788,-12.0705 1.53869,-2.04498 2.98655,-4.8082 3.79358,-7.20555 0.42862,-1.27317 0.63866,-2.60366 0.95769,-3.90558 1.08325,-7.24732 -0.46514,-14.34628 -4.19044,-20.73268 -0.80508,-1.38022 -1.77479,-2.66827 -2.66185,-4.00225 -4.86154,-6.59561 -11.24161,-12.02142 -18.81862,-15.66999 -1.68445,-0.8111 -3.45376,-1.45137 -5.18062,-2.17725 -13.56909,-4.85591 -28.09912,-5.935421 -42.43112,-6.908212 -15.96238,-0.993281 -31.99728,-0.830108 -47.94512,0.328827 -3.39141,0.246461 -6.77497,0.58294 -10.1624,0.874425 -15.94886,1.71057 -31.91337,4.20532 -47.19244,9.00636 -2.61058,0.82029 -5.16544,1.79326 -7.74808,2.68991 -2.35544,0.98852 -4.74915,1.8978 -7.06579,2.966 -2.14178,0.98752 -4.25668,2.03568 -6.29997,3.19668 -7.11597,4.04321 -10.72407,5.84023 -16.0655,10.82478 -3.88329,3.62384 -4.90596,5.28315 -8.09078,9.39744 -3.95431,5.82028 -7.09329,12.15067 -7.94457,19.09955 -0.49493,4.04006 -0.20766,4.65598 0.21195,8.61822 1.38021,5.66142 4.27317,10.86547 9.12581,14.5341 3.5011,2.64684 5.23828,3.07542 9.36099,4.83203 13.56035,4.4809 28.04662,5.21632 42.24778,6.23079 16.35468,0.99973 32.66989,2.48325 49.01342,3.6207 15.98591,1.01432 31.99426,1.77698 48.01552,1.96049 9.25251,-0.0837 18.51758,-0.50814 27.72477,-1.4332 -19.12154,2.64088 -38.24013,5.33013 -57.44147,7.3857 -19.02468,1.61654 -38.13651,2.80879 -57.24113,1.78911 -14.34747,-0.77558 -28.68864,-1.78889 -42.88907,-3.97077 -6.39208,-0.98692 -12.79728,-1.94594 -19.03989,-3.63024 -6.26947,-1.69157 -12.3232,-4.03695 -18.04894,-6.99607 -5.06591,-3.01761 -6.96556,-3.90329 -11.564107,-7.66107 -7.884327,-6.44284 -14.127957,-14.40689 -18.522383,-23.353 -2.488356,-6.07153 -3.493081,-7.7779 -4.901334,-14.17086 -2.024828,-9.19184 -1.84288,-18.652 0.806064,-27.70459 0.854195,-1.97491 1.522105,-4.03203 2.562066,-5.92467 2.046896,-3.72526 4.746879,-6.87673 7.970862,-9.72992 1.622174,-1.43561 3.462679,-2.631082 5.178279,-3.964926 0.202078,-0.157036 0.339641,-0.395958 0.573219,-0.50678 2.230747,-1.057679 4.525311,-1.988564 6.788078,-2.982838 2.518981,-0.815484 5.005696,-1.727874 7.557016,-2.446764 15.70276,-4.424484 32.11679,-6.018875 48.26771,-8.191273 24.55339,-2.897383 49.17328,-5.542743 73.90769,-6.510538 7.87986,-0.171203 12.65367,-0.340116 18.9811,-0.31491 z M 24.238701,155.83936 v 7.07737 c 0.721014,0.50133 1.440025,1.01755 2.159033,1.51521 4.927988,3.33361 10.014661,6.42507 15.191381,9.37694 l 6.413675,-0.40498 -3.234302,2.18678 c 7.275033,4.04489 14.697429,7.85795 22.10168,11.68163 10.403852,5.37522 21.016625,10.39093 32.076105,14.43889 7.500157,2.74518 11.255987,3.79211 18.957887,6.16855 21.56781,6.40675 43.87927,9.93715 66.16812,13.15144 23.89282,3.32875 47.87003,6.0827 71.90184,8.31943 20.72717,1.74323 41.50441,3.26874 62.31961,3.57457 4.26863,0.0626 8.53809,0.0128 12.80722,0.0205 17.02468,-0.16848 34.03647,-1.42401 50.85147,-3.98761 10.81266,-1.6485 13.59602,-2.39235 24.2259,-4.63648 14.5288,-3.46149 28.95646,-7.57634 42.49918,-13.74318 8.55079,-3.8937 13.16787,-6.87258 21.79455,-11.80465 9.76502,-6.2998 18.67747,-13.82367 25.97961,-22.65727 -0.14642,-1.76749 -0.28957,-3.40526 -0.43322,-4.9946 -0.20896,0.32155 -0.40739,0.64967 -0.62116,0.96816 -1.16353,1.59085 -2.26574,3.22364 -3.49114,4.77196 -7.47764,9.44832 -16.83028,17.40244 -27.11209,24.00333 -4.74735,3.16416 -3.7041,2.62741 -11.46664,6.21028 -13.56133,6.25946 -28.02697,10.4513 -42.60437,13.95849 -10.62263,2.27176 -13.43356,3.03138 -24.23905,4.70018 -16.80086,2.59476 -33.80342,3.88857 -50.81974,4.06011 -4.26188,-0.006 -8.52417,0.0462 -12.78555,-0.0168 -20.78763,-0.30549 -41.53855,-1.81971 -62.23608,-3.58557 -24.02036,-2.2171 -47.9841,-4.97572 -71.86238,-8.30992 -22.216,-3.22133 -44.45194,-6.76986 -65.94146,-13.18952 -7.55625,-2.35911 -11.47762,-3.47521 -18.83954,-6.1927 -11.004509,-4.0621 -21.569813,-9.07241 -31.910557,-14.46747 -13.747572,-7.10851 -27.572118,-14.15865 -40.323145,-22.83742 -2.512374,-1.75237 -5.03892,-3.52732 -7.526837,-5.35563 z m 1.608254,33.08512 0.273842,5.96567 c 1.566622,0.79919 3.136729,1.59167 4.700216,2.39623 11.511377,5.69349 23.280646,10.9268 35.362226,15.43563 7.295057,2.72251 12.192218,4.29866 19.598408,6.78664 21.425983,7.08972 43.214883,13.10658 65.030983,18.99701 21.53725,5.79665 43.33403,10.62241 65.24294,14.94714 7.19507,-0.0241 14.05953,-0.0275 20.48723,-0.002 -2.59809,-0.47318 -5.1961,-0.94692 -7.78908,-1.44858 -24.59734,-4.71953 -49.06024,-10.06369 -73.20762,-16.57954 -21.75739,-5.91662 -43.47844,-11.98287 -64.853049,-19.06952 -6.923963,-2.33811 -12.711572,-4.22703 -19.538846,-6.79102 -12.041628,-4.52221 -23.765543,-9.78263 -35.268622,-15.42172 -4.645735,-2.39005 -7.146702,-3.64225 -10.038628,-5.21574 z m 473.741535,59.13973 c -2.19502,1.59439 -2.22995,1.51113 -8.25787,4.46731 -11.03857,5.41341 -22.71451,9.61592 -34.73022,12.59267 -2.33772,0.5079 -3.56683,0.76869 -5.19685,1.12779 2.22115,0.12671 5.42514,0.31777 7.51369,0.43649 9.50928,-2.72715 18.76907,-6.23109 27.62032,-10.52452 4.64589,-2.25352 8.6272,-4.50267 12.69121,-6.85914 z" />
    <path
       style="fill:#c5b1a0;fill-opacity:1;stroke:none;stroke-width:0.385371px;stroke-linecap:butt;stroke-linejoin:miter;stroke-opacity:1"
       d="M 19.152446,40.649248 18.772978,9.8701353 31.971942,5.8952881 21.478324,10.684916 Z"
       id="path125200" />
    <path
       style="fill:#c5b1a0;fill-opacity:1;stroke:none;stroke-width:0.385371px;stroke-linecap:butt;stroke-linejoin:miter;stroke-opacity:1"
       d="m 24.201281,160.01911 0.03875,-18.58871 6.973829,-4.17485 -5.400658,4.41673 z"
       id="path125064" />
    <path
       style="fill:#f4dbc6;fill-opacity:1;stroke:none;stroke-width:0.385371px;stroke-linecap:butt;stroke-linejoin:miter;stroke-opacity:1"
       d="m 27.407081,222.89896 -2.844253,-31.21354 -4.47976,3.099 5.739747,-6.38181 6.95967,-4.71059 -4.754066,6.21234 z"
       id="path72327"
       sodipodi:nodetypes="ccccccc" />
    <path
       style="fill:#000000;fill-opacity:0.193548;stroke:none;stroke-width:0.385371px;stroke-linecap:butt;stroke-linejoin:miter;stroke-opacity:1"
       d="m 24.201281,160.01911 c 0,0 206.519079,-25.45485 285.941049,-49.10346 C 397.311,84.960381 498.72811,9.1715653 498.72811,9.1715653 l 2.37639,11.2488097 -19.01126,2.249763 17.427,5.999365 5.54496,47.245002 -12.67418,2.249765 7.92135,6.749288 -1.58427,55.494122 h -11.08991 l 7.12923,17.9981 3.28272,39.87771 0.095,18.0051 -3.0535,5.86235 -27.25694,7.49731 36.43827,2.24976 -10.64785,36.74612 -210.6399,-13.02595 -231.021987,0.27729 -22.179823,-8.24912 -0.248318,-9.08118 16.091037,1.58196 -18.219126,-17.24817 0.621339,-32.9946 4.754089,-6.21234 15.220104,-10.28783 -23.764075,1.49985 z"
       id="path75854"
       sodipodi:nodetypes="csccccccccccccccccccccccccccc" />
    <path
       style="fill:#c5b1a0;fill-opacity:1;stroke:none;stroke-width:0.385371px;stroke-linecap:butt;stroke-linejoin:miter;stroke-opacity:1"
       d="m 27.407057,222.89896 -1.386477,-32.81993 6.761905,-6.38701 -4.75409,6.21234 z"
       id="path109753" />
    <path
       style="fill:#d99e75;fill-opacity:1;stroke:none;stroke-width:0.385371px;stroke-linecap:butt;stroke-linejoin:miter;stroke-opacity:1"
       d="m 498.19491,252.87916 2.93451,-19.20973 -23.52195,-3.40895 26.66554,1.63753 z"
       id="path137487"
       sodipodi:nodetypes="ccccc" />
    <path
       style="fill:#d99e75;fill-opacity:1;stroke:none;stroke-width:0.385371px;stroke-linecap:butt;stroke-linejoin:miter;stroke-opacity:1"
       d="m 500.12313,91.544142 -0.82371,-6.176408 -3.05899,-3.919589 4.07194,3.465413 z"
       id="path139522"
       sodipodi:nodetypes="ccccc" />
    <path
       style="fill:#d99e75;fill-opacity:1;stroke:none;stroke-width:0.385371px;stroke-linecap:butt;stroke-linejoin:miter;stroke-opacity:1"
       d="m 500.62379,38.073033 -1.91822,-8.154169 -6.37091,-3.723505 7.18558,2.474144 z"
       id="path139590"
       sodipodi:nodetypes="ccccc" />
    <path
       style="fill:#d99e75;fill-opacity:1;stroke:none;stroke-width:0.385371px;stroke-linecap:butt;stroke-linejoin:miter;stroke-opacity:1"
       d="m 499.94639,14.923385 -2.72302,-4.599825 -4.19558,-1.2638691 5.70031,0.1118718 z"
       id="path139666"
       sodipodi:nodetypes="ccccc" />
  </g>
  <g
     inkscape:groupmode="layer"
     id="layer5"
     inkscape:label="Warstwa 3">
    <text
       xml:space="preserve"
       transform="scale(0.26458333)"
       id="text151315"
       style="fill:black;fill-opacity:1;line-height:1.25;stroke:none;font-family:sans-serif;font-style:normal;font-weight:normal;font-size:40px;white-space:pre;shape-inside:url(#rect151317)" />
    <text
       xml:space="preserve"
       transform="scale(0.26458333)"
       id="text157473"
       style="font-style:normal;font-weight:normal;font-size:40px;line-height:1.25;font-family:sans-serif;white-space:pre;shape-inside:url(#rect157475);fill:#000000;fill-opacity:1;stroke:none" />
    <text
       xml:space="preserve"
       transform="scale(0.26458333)"
       id="text173279"
       style="fill:black;fill-opacity:1;line-height:1.25;stroke:none;font-family:sans-serif;font-style:normal;font-weight:normal;font-size:40px;white-space:pre;shape-inside:url(#rect173281)" />
    <path
       inkscape:original-d="M 0,0"
       inkscape:path-effect="#path-effect182130"
       d="M 0,0"
       id="path182132" />
    <text
       xml:space="preserve"
       style="font-style:normal;font-weight:normal;font-size:33.5502px;line-height:1.25;font-family:sans-serif;fill:#4e4e4e;fill-opacity:1;stroke:none;stroke-width:0.838758;filter:url(#filter191724)"
       x="174.33176"
       y="61.342953"
       id="text191230"
       transform="matrix(1.1451661,0,0,0.87323576,-17.599209,8.0277259)"><tspan
         sodipodi:role="line"
         id="tspan191228"
         style="font-style:normal;font-variant:normal;font-weight:normal;font-stretch:normal;font-family:'Shadow of Xizor';-inkscape-font-specification:'Shadow of Xizor';fill:#4e4e4e;fill-opacity:1;stroke-width:0.838758"
         x="174.33176"
         y="61.342953">GAME PAUSED</tspan></text>
    <circle
       id="path34644"
       style="fill:#381600;stroke:#000000;stroke-width:0.264583"
       cx="179.28606"
       cy="53.811077"
       r="0.01762126" />
    <circle
       id="path34646"
       style="fill:#381600;stroke:#000000;stroke-width:0.264583"
       cx="179.28606"
       cy="53.811077"
       r="0.01762126" />
  </g>
</svg>
